<svg xmlns="http://www.w3.org/2000/svg" viewBox="0 0 32 32">
  <defs>
    <linearGradient id="musicGradient" x1="0%" y1="0%" x2="100%" y2="100%">
      <stop offset="0%" style="stop-color:#9370db;stop-opacity:1" />
      <stop offset="50%" style="stop-color:#ba55d3;stop-opacity:1" />
      <stop offset="100%" style="stop-color:#ff6ec7;stop-opacity:1" />
    </linearGradient>
  </defs>
  
  <!-- Background circle -->
  <circle cx="16" cy="16" r="15" fill="url(#musicGradient)" opacity="0.1"/>
  <circle cx="16" cy="16" r="14" fill="none" stroke="url(#musicGradient)" stroke-width="1" opacity="0.5"/>
  
  <!-- Musical note -->
  <g transform="translate(16, 16)">
    <path d="M -2,-10 L -2,4 C -2,6 -4,8 -6,8 C -8,8 -10,6 -10,4 C -10,2 -8,0 -6,0 C -4,0 -2,1 -2,2 L -2,-10 L 8,-8 L 8,6 C 8,8 6,10 4,10 C 2,10 0,8 0,6 C 0,4 2,2 4,2 C 6,2 8,3 8,4 L 8,-8 L -2,-10 Z" 
          fill="url(#musicGradient)" 
          stroke="white" 
          stroke-width="0.5"
          stroke-linejoin="round"/>
  </g>
  
  <!-- Small sparkles -->
  <circle cx="8" cy="8" r="1" fill="white" opacity="0.8">
    <animate attributeName="opacity" values="0.8;0.2;0.8" dur="2s" repeatCount="indefinite"/>
  </circle>
  <circle cx="24" cy="10" r="1" fill="white" opacity="0.6">
    <animate attributeName="opacity" values="0.6;0.1;0.6" dur="2.5s" repeatCount="indefinite"/>
  </circle>
  <circle cx="22" cy="24" r="1" fill="white" opacity="0.7">
    <animate attributeName="opacity" values="0.7;0.2;0.7" dur="3s" repeatCount="indefinite"/>
  </circle>
</svg>